<svg width="112" height="20" viewBox="0 0 112 20" fill="none" xmlns="http://www.w3.org/2000/svg">
<g clip-path="url(#clip0_2001_346)">
<path d="M106.058 16.1474C104.435 16.1474 103.157 15.816 102.223 15.1532C101.29 14.477 100.789 13.5303 100.722 12.3131H103.968C104.022 12.6518 104.231 12.9418 104.597 13.1855C104.962 13.4292 105.475 13.551 106.138 13.551C106.612 13.551 107.016 13.4828 107.355 13.3475C107.707 13.1989 107.883 12.9625 107.883 12.6372C107.883 12.3533 107.748 12.123 107.477 11.9476C107.207 11.7587 106.713 11.6296 105.997 11.5626L105.226 11.4809C103.792 11.3323 102.737 10.94 102.061 10.304C101.385 9.66798 101.046 8.86993 101.046 7.90983C101.046 7.08497 101.25 6.40877 101.655 5.88119C102.06 5.34023 102.622 4.9345 103.338 4.66403C104.055 4.39354 104.873 4.2583 105.793 4.2583C107.294 4.2583 108.505 4.58968 109.424 5.2525C110.344 5.90191 110.83 6.84129 110.885 8.07188H107.639C107.586 7.73438 107.403 7.44926 107.092 7.2202C106.781 6.97652 106.334 6.8547 105.753 6.8547C105.334 6.8547 104.989 6.92902 104.719 7.07766C104.462 7.2263 104.334 7.43588 104.334 7.70635C104.334 7.99025 104.455 8.19981 104.699 8.33504C104.956 8.4703 105.362 8.57141 105.916 8.63964L106.688 8.72129C108.122 8.86993 109.223 9.26956 109.994 9.91773C110.779 10.5538 111.171 11.392 111.171 12.4337C111.171 13.205 110.962 13.8678 110.543 14.4222C110.137 14.9765 109.548 15.403 108.777 15.7003C108.019 15.9975 107.114 16.1462 106.059 16.1462L106.058 16.1474Z" fill="white"/>
<path d="M96.1525 0.973633V6.05678C95.8406 5.55846 95.4421 5.16248 94.9559 4.86762C94.3201 4.46189 93.55 4.25843 92.6436 4.25843C91.8589 4.25843 91.1485 4.40707 90.5137 4.70436C89.8776 4.98826 89.3367 5.39396 88.8907 5.92154C88.4448 6.43569 88.1001 7.04369 87.8564 7.74671C87.626 8.43631 87.5117 9.18685 87.5117 9.99829V10.4856C87.5117 11.2971 87.6334 12.0476 87.8772 12.7372C88.1342 13.4269 88.4925 14.0288 88.953 14.5429C89.427 15.0437 89.9813 15.436 90.6162 15.7199C91.2655 16.0038 91.9818 16.1463 92.7665 16.1463C93.6865 16.1463 94.4772 15.9502 95.1399 15.5578C95.8162 15.1521 96.3438 14.5843 96.7226 13.8533C96.7981 13.7059 96.8641 13.5511 96.9251 13.394V15.7808H99.8465V0.973633H96.1549H96.1525ZM96.2342 10.4881C96.2342 11.0425 96.1196 11.5164 95.8893 11.9075C95.6591 12.2998 95.3544 12.5971 94.9767 12.8006C94.6112 13.0041 94.2055 13.1052 93.7596 13.1052C93.2722 13.1052 92.8334 12.9907 92.4413 12.7604C92.0623 12.5167 91.7576 12.1853 91.5288 11.7662C91.3117 11.3337 91.2046 10.8268 91.2046 10.2444C91.2046 9.66201 91.313 9.15517 91.5288 8.72263C91.7589 8.2767 92.0623 7.93189 92.4413 7.68821C92.8334 7.43112 93.2735 7.3032 93.7596 7.3032C94.192 7.3032 94.5917 7.40434 94.9559 7.60779C95.3349 7.79666 95.6384 8.07446 95.8685 8.43996C96.1122 8.8055 96.2342 9.25873 96.2342 9.79969V10.4893V10.4881Z" fill="white"/>
<path d="M82.8868 0.973633V6.05678C82.575 5.55846 82.1765 5.16248 81.6905 4.86762C81.0545 4.46189 80.2844 4.25843 79.3779 4.25843C78.5933 4.25843 77.8829 4.40707 77.2481 4.70436C76.6123 4.98826 76.0713 5.39396 75.6254 5.92154C75.1794 6.43569 74.8345 7.04369 74.5908 7.74671C74.3607 8.43631 74.2461 9.18685 74.2461 9.99829V10.4856C74.2461 11.2971 74.3678 12.0476 74.6115 12.7372C74.8686 13.4269 75.2268 14.0288 75.6861 14.5429C76.1602 15.0437 76.7145 15.436 77.3493 15.7199C77.9987 16.0038 78.715 16.1463 79.4997 16.1463C80.4197 16.1463 81.2103 15.9502 81.8733 15.5578C82.5493 15.1521 83.077 14.5843 83.456 13.8533C83.5315 13.7059 83.5972 13.5511 83.6594 13.394V15.7808H86.5812V0.973633H82.8893H82.8868ZM82.9673 10.4881C82.9673 11.0425 82.8528 11.5164 82.6224 11.9075C82.3923 12.2998 82.0888 12.5971 81.71 12.8006C81.3444 13.0041 80.9387 13.1052 80.4928 13.1052C80.0054 13.1052 79.5668 12.9907 79.1745 12.7604C78.7955 12.5167 78.491 12.1853 78.2619 11.7662C78.0451 11.3337 77.9377 10.8268 77.9377 10.2444C77.9377 9.66201 78.0461 9.15517 78.2619 8.72263C78.492 8.2767 78.7967 7.93189 79.1745 7.68821C79.5668 7.43112 80.0066 7.3032 80.4928 7.3032C80.9254 7.3032 81.3249 7.40434 81.6893 7.60779C82.0681 7.79666 82.3715 8.07446 82.6019 8.43996C82.8454 8.8055 82.9673 9.25873 82.9673 9.79969V10.4893V10.4881Z" fill="white"/>
<path d="M65.4574 16.1886C64.1051 16.1886 62.9281 15.9583 61.9278 15.499C60.9276 15.0262 60.0955 14.411 59.4325 13.6531C58.7698 12.8819 58.2762 12.0509 57.9523 11.1579C57.6281 10.2648 57.4648 9.39971 57.4648 8.56146V8.11551C57.4648 7.18222 57.6342 6.26966 57.9718 5.37657C58.3093 4.47008 58.8172 3.65252 59.4935 2.92148C60.1698 2.19045 61.0019 1.60928 61.9888 1.17675C62.989 0.744218 64.1453 0.527344 65.4574 0.527344C66.7698 0.527344 67.8992 0.744218 68.8861 1.17675C69.8863 1.60928 70.7258 2.19045 71.4021 2.92148C72.0782 3.65252 72.5851 4.47008 72.9239 5.37657C73.276 6.26966 73.4515 7.18222 73.4515 8.11551V8.56146C73.4515 9.39971 73.2821 10.266 72.9446 11.1579C72.6204 12.0509 72.1258 12.8819 71.4641 13.6531C70.8014 14.411 69.9693 15.0262 68.969 15.499C67.9685 15.9583 66.7977 16.1886 65.4599 16.1886H65.4574ZM65.4574 12.6589C66.1068 12.6589 66.688 12.5505 67.2024 12.3348C67.7164 12.1192 68.1562 11.8146 68.5206 11.4222C68.8848 11.0299 69.1626 10.5767 69.3527 10.0625C69.5416 9.53494 69.6367 8.96716 69.6367 8.35798C69.6367 7.70857 69.5355 7.12008 69.332 6.59252C69.1431 6.06497 68.8653 5.61171 68.4999 5.23279C68.1342 4.85388 67.6957 4.56388 67.1816 4.36042C66.6673 4.15694 66.0922 4.05583 65.4574 4.05583C64.8226 4.05583 64.2268 4.15694 63.7127 4.36042C63.1987 4.56388 62.7587 4.85388 62.3945 5.23279C62.029 5.61171 61.7523 6.06497 61.5624 6.59252C61.3735 7.12008 61.2784 7.70857 61.2784 8.35798C61.2784 8.96716 61.3735 9.53494 61.5624 10.0625C61.7513 10.5767 62.029 11.0299 62.3945 11.4222C62.7599 11.8146 63.1987 12.1192 63.7127 12.3348C64.2268 12.5505 64.8081 12.6589 65.4574 12.6589Z" fill="white"/>
<path d="M51.0027 16.1889C50.0291 16.1889 49.1837 16.033 48.4671 15.7223C47.7508 15.3982 47.1489 14.9644 46.6614 14.4235C46.1889 13.8825 45.8293 13.2672 45.5869 12.5776C45.3568 11.888 45.2422 11.1716 45.2422 10.4271V10.0214C45.2422 9.23675 45.3639 8.49355 45.6076 7.79053C45.8647 7.08752 46.2363 6.4649 46.7237 5.92394C47.2111 5.38298 47.8128 4.95653 48.5293 4.64584C49.2456 4.33515 50.0706 4.1792 51.0039 4.1792C52.0323 4.1792 52.9375 4.38266 53.7222 4.78838C54.5069 5.19411 55.1281 5.75579 55.5886 6.47221C56.0627 7.17522 56.3259 7.98668 56.3795 8.90658H52.7681C52.7279 8.46063 52.5585 8.08172 52.2612 7.77103C51.9775 7.46034 51.5582 7.30438 51.0039 7.30438C50.5298 7.30438 50.1387 7.42621 49.8269 7.66989C49.5296 7.91357 49.3066 8.25108 49.158 8.68362C49.0094 9.11614 48.935 9.63031 48.935 10.2249C48.935 10.7792 48.996 11.2727 49.1177 11.7052C49.2531 12.1378 49.4698 12.4765 49.7671 12.7189C50.078 12.9492 50.4911 13.0637 51.0051 13.0637C51.3842 13.0637 51.7019 12.9955 51.9592 12.8603C52.2163 12.725 52.4185 12.5362 52.5671 12.2925C52.7158 12.0354 52.8108 11.7381 52.8511 11.3994H56.4624C56.4086 12.3461 56.1382 13.1783 55.6508 13.8947C55.1782 14.6111 54.5422 15.1728 53.7442 15.5785C52.9461 15.9842 52.0335 16.1865 51.0051 16.1865L51.0027 16.1889Z" fill="white"/>
<path d="M41.9195 3.69175C42.5825 3.69175 43.0699 3.5224 43.3805 3.18489C43.6911 2.83277 43.8472 2.38684 43.8472 1.84587C43.8472 1.3049 43.6911 0.865062 43.3805 0.527565C43.0699 0.175449 42.5763 0 41.9 0C41.224 0 40.744 0.175449 40.4198 0.527565C40.1092 0.865062 39.9531 1.3049 39.9531 1.84587C39.9531 2.38684 40.1092 2.83277 40.4198 3.18489C40.744 3.5224 41.2447 3.69175 41.9208 3.69175H41.9195Z" fill="white"/>
<path d="M40.3973 4.58496H38.9766V7.26301H40.3973V15.7833H44.0892V7.26301V4.58496H40.3973Z" fill="white"/>
<path d="M29.1844 7.64765C28.9541 6.95802 28.6165 6.36345 28.1694 5.86269C27.7234 5.34854 27.1886 4.95619 26.5674 4.68572C25.9447 4.40182 25.2489 4.25928 24.4777 4.25928C23.5846 4.25928 22.7939 4.46276 22.1043 4.86725C21.4147 5.25957 20.8664 5.84076 20.4607 6.61199C20.3327 6.86298 20.2267 7.13227 20.1366 7.41614V4.58338H17.2148V19.8389H20.9066V14.5133C21.2587 14.9909 21.69 15.3662 22.2054 15.6403C22.8682 15.9778 23.6322 16.1472 24.4972 16.1472C25.3086 16.1472 26.0252 16.0046 26.6476 15.7207C27.2837 15.4369 27.8173 15.0372 28.2499 14.5243C28.6824 13.9967 29.0076 13.3887 29.2234 12.6991C29.4402 11.9961 29.5474 11.2322 29.5474 10.4073V9.91994C29.5474 9.0951 29.4257 8.33725 29.182 7.64765H29.1844ZM25.5328 11.6842C25.3294 12.1301 25.0395 12.4822 24.6605 12.7393C24.295 12.983 23.8697 13.1048 23.3824 13.1048C22.9766 13.1048 22.5782 13.0098 22.1859 12.821C21.7936 12.6175 21.4695 12.3336 21.2124 11.9693C20.9553 11.5904 20.8274 11.1371 20.8274 10.6096V9.91994C20.8274 9.36557 20.9492 8.89162 21.1929 8.50051C21.4366 8.1094 21.7473 7.81091 22.1262 7.60743C22.5185 7.40397 22.9377 7.30283 23.3836 7.30283C23.8844 7.30283 24.3169 7.42469 24.6824 7.66836C25.0479 7.89864 25.3318 8.23004 25.5341 8.66256C25.7508 9.0817 25.8583 9.58246 25.8583 10.1636C25.8583 10.7448 25.7496 11.2383 25.5341 11.6854L25.5328 11.6842Z" fill="white"/>
<path fill-rule="evenodd" clip-rule="evenodd" d="M38.074 7.26187V4.58627H33.8572C34.5004 4.55703 35.0074 4.04773 35.0074 3.42879V1.66455H31.6032V3.29597C31.6032 4.00753 31.0024 4.58506 30.2617 4.58506H29.9607V7.26308H31.6032L31.5837 11.2192C31.5837 12.3962 31.7456 13.3295 32.0711 14.0191C32.395 14.7087 32.9165 15.2021 33.633 15.4995C34.3629 15.7967 35.3375 15.9454 36.5548 15.9454H38.0765V12.8616H36.5353C36.0345 12.8616 35.6493 12.7337 35.379 12.4766C35.1219 12.2061 34.994 11.8211 34.994 11.3203L35.0135 7.26187H38.0777H38.074Z" fill="white"/>
<path d="M15.5488 5.37668C14.5461 2.7029 12.062 0.909441 9.24431 0.590824C9.1715 0.582589 9.09836 0.60936 9.04713 0.661752C7.17179 2.57952 6.60938 4.14243 6.60938 4.14243C8.43698 4.0206 10.496 4.25739 11.5746 6.03095C13.4998 9.19646 10.2957 13.9454 8.48814 16.1802C11.6638 16.0678 14.4785 14.1535 15.5707 11.1592C16.2598 9.333 16.2649 7.19562 15.5488 5.37547V5.37668Z" fill="white"/>
<path d="M0.596323 11.3382C1.59899 14.012 4.08311 15.8054 6.90076 16.124C6.97358 16.1323 7.04671 16.1055 7.09795 16.0531C8.97328 14.1354 9.5357 12.5724 9.5357 12.5724C7.70809 12.6943 5.64903 12.4575 4.57044 10.6839C2.6453 7.51841 5.84938 2.7694 7.65693 0.534668C4.48123 0.647024 1.66658 2.56135 0.574392 5.55567C-0.114778 7.38185 -0.11981 9.51923 0.596323 11.3394V11.3382Z" fill="white"/>
</g>
<defs>
<clipPath id="clip0_2001_346">
<rect width="111.358" height="20" fill="white"/>
</clipPath>
</defs>
</svg>
