<svg width="43" height="24" viewBox="0 0 43 24" fill="none" xmlns="http://www.w3.org/2000/svg">
<g clip-path="url(#clip0_1294_2107)">
<path d="M12.7798 10.4474L8.06236 0.0180664H5.6093L0.947362 10.3595L0.914062 10.4474H3.52252L4.44382 8.23847H9.19455L10.1158 10.4474H12.7798ZM8.38426 6.30424H5.2652L6.83028 2.57869L8.38426 6.30424Z" fill="white"/>
<path d="M17.7774 10.4534L21.146 2.40137H18.809L16.5817 7.70336L14.4312 2.40137H11.9297L15.2886 10.4534H17.7774Z" fill="white"/>
<path d="M28.3849 3.17128C27.7154 2.57726 26.761 2.28027 25.5212 2.28027C24.8848 2.28027 24.2485 2.36828 23.645 2.53328C23.0415 2.69828 22.5149 2.94026 22.076 3.24827L22.0321 3.28127L22.9098 4.99726L22.9647 4.95326C23.239 4.73326 23.579 4.55727 23.9851 4.42526C24.38 4.29327 24.797 4.22725 25.2139 4.22725C25.8063 4.22725 26.2451 4.35926 26.5416 4.61227C26.8157 4.85426 26.9693 5.21726 26.9804 5.66827H25.2139C24.0509 5.66827 23.1732 5.88827 22.6136 6.31726C22.0431 6.74626 21.7578 7.35125 21.7578 8.09925C21.7578 8.57225 21.8785 9.00124 22.1199 9.37524C22.3613 9.74924 22.7123 10.0462 23.1622 10.2552C23.6121 10.4642 24.1496 10.5742 24.7641 10.5742C25.8613 10.5742 26.6513 10.2552 27.1119 9.60623V10.4532H29.3832V5.86625C29.3832 4.67826 29.0431 3.76527 28.3849 3.17128ZM26.3551 8.63824C26.0586 8.81426 25.7187 8.90224 25.3455 8.90224C24.9616 8.90224 24.6544 8.81426 24.435 8.66025C24.2156 8.49526 24.1167 8.28626 24.1167 8.01126C24.1167 7.42826 24.5555 7.14225 25.4662 7.14225H26.9693V7.87925C26.8486 8.20924 26.6402 8.46225 26.3551 8.63824Z" fill="white"/>
<path fill-rule="evenodd" clip-rule="evenodd" d="M0.914063 12.8022H3.41562V21.3653H11.329V23.8726H3.41562V23.8755H0.914063V23.8726L0.914062 21.3653L0.914063 12.8022Z" fill="white"/>
<path d="M19.3613 16.5912C18.692 15.9972 17.7375 15.7002 16.4977 15.7002C15.8613 15.7002 15.225 15.7882 14.6215 15.9532C14.0181 16.1182 13.4914 16.3602 13.0525 16.6682L13.0087 16.7012L13.8864 18.4172L13.9413 18.3732C14.2156 18.1532 14.5557 17.9772 14.9616 17.8452C15.3566 17.7132 15.7736 17.6472 16.1905 17.6472C16.783 17.6472 17.2218 17.7792 17.5181 18.0322C17.7924 18.2742 17.946 18.6372 17.9569 19.0882H16.1905C15.0275 19.0882 14.1497 19.3082 13.5902 19.7372C13.0196 20.1662 12.7344 20.7711 12.7344 21.5191C12.7344 21.9921 12.8551 22.4211 13.0965 22.7951C13.3378 23.1692 13.6889 23.4661 14.1388 23.6752C14.5886 23.8842 15.1262 23.9942 15.7406 23.9942C16.8378 23.9942 17.6278 23.6752 18.0886 23.0261V23.8732H20.3598V19.2862C20.3598 18.0982 20.0306 17.1852 19.3613 16.5912ZM17.3315 22.0581C17.0353 22.2342 16.6952 22.3221 16.3221 22.3221C15.9381 22.3221 15.6309 22.2342 15.4115 22.0802C15.1921 21.9152 15.0933 21.7062 15.0933 21.4312C15.0933 20.8482 15.5322 20.5621 16.4428 20.5621H17.9569V21.2991C17.8253 21.6291 17.6168 21.8821 17.3315 22.0581Z" fill="white"/>
<path d="M28.8196 16.2171C28.2051 15.8761 27.5251 15.7001 26.7788 15.7001C25.8133 15.7001 25.0344 15.9971 24.4528 16.5691V12.8071H22.0391V23.8622H24.3541V23.048C24.9247 23.6642 25.7476 23.9832 26.7788 23.9832C27.5251 23.9832 28.2051 23.8071 28.8196 23.4662C29.4341 23.125 29.9168 22.6301 30.257 22.0141C30.6079 21.3981 30.7836 20.6611 30.7836 19.8361C30.7836 19.0111 30.6079 18.2851 30.257 17.6581C29.9058 17.0531 29.4231 16.5581 28.8196 16.2171ZM26.3839 17.7131C26.9545 17.7131 27.4262 17.9111 27.7882 18.2961C28.1504 18.6811 28.3369 19.2091 28.3369 19.8581C28.3369 20.5071 28.1504 21.0351 27.7882 21.4201C27.4262 21.8051 26.9545 22.0031 26.3839 22.0031C25.8133 22.0031 25.3417 21.8051 24.9794 21.4201C24.6175 21.0351 24.4309 20.5071 24.4309 19.8581C24.4309 19.2091 24.6175 18.6811 24.9794 18.2961C25.3417 17.9111 25.8133 17.7131 26.3839 17.7131Z" fill="white"/>
<path d="M38.4353 20.0122C38.1281 19.6822 37.7551 19.4512 37.3381 19.3302C36.9214 19.2092 36.3947 19.0882 35.7473 18.9782C35.1768 18.8902 34.7488 18.8022 34.4965 18.7032C34.2552 18.6152 34.1345 18.4612 34.1345 18.2412C34.1345 18.0432 34.2442 17.8892 34.4746 17.7682C34.7051 17.6362 35.0671 17.5702 35.5498 17.5702C36.3616 17.5702 37.1187 17.7682 37.799 18.1532L37.8539 18.1862L38.6658 16.4372L38.6218 16.4042C38.2599 16.1842 37.7882 16.0082 37.2284 15.8872C36.6689 15.7662 36.1093 15.7002 35.5498 15.7002C34.7927 15.7002 34.1235 15.8102 33.5639 16.0302C33.0044 16.2502 32.5656 16.5582 32.2692 16.9542C31.9729 17.3502 31.8193 17.8122 31.8193 18.3292C31.8193 18.9452 31.984 19.4182 32.3023 19.7592C32.6203 20.0892 32.9934 20.3202 33.4213 20.4522C33.8383 20.5842 34.3868 20.6942 35.0342 20.7932C35.5716 20.8592 35.9778 20.9472 36.2411 21.0352C36.4824 21.1232 36.6031 21.2662 36.6031 21.4642C36.6031 21.9042 36.1314 22.1242 35.2097 22.1242C34.738 22.1242 34.2442 22.0582 33.7615 21.9152C33.2677 21.7721 32.8397 21.5962 32.4996 21.3652L32.4449 21.3322L31.6328 23.0922L31.6767 23.1252C32.0498 23.378 32.5656 23.5871 33.1909 23.7411C33.8162 23.9061 34.4746 23.9831 35.1328 23.9831C35.9118 23.9831 36.5921 23.8732 37.1626 23.6641C37.7332 23.4553 38.172 23.1471 38.4793 22.7511C38.7755 22.3551 38.9291 21.9042 38.9291 21.3982C38.9072 20.8152 38.7426 20.3422 38.4353 20.0122Z" fill="white"/>
<path d="M42.7498 21.4629H40.3359V23.8829H42.7498V21.4629Z" fill="white"/>
</g>
<defs>
<clipPath id="clip0_1294_2107">
<rect width="41.8526" height="24" fill="white" transform="translate(0.914062)"/>
</clipPath>
</defs>
</svg>
