<svg width="100" height="24" viewBox="0 0 100 24" fill="none" xmlns="http://www.w3.org/2000/svg">
<path d="M26.5466 12.485L25.7131 11.6475L26.4296 10.9278C26.5586 10.7982 26.6024 10.6059 26.5429 10.4328L24.5535 4.67217C24.4969 4.50813 24.3565 4.38809 24.1865 4.35796L22.6399 4.08391L22.8213 2.53388C22.8451 2.33158 22.7385 2.13645 22.5561 2.04749L18.6941 0.165551C18.6356 0.136855 18.5723 0.121072 18.507 0.118203L15.8156 0.000551782C15.6695 -0.00662207 15.5267 0.0565077 15.4314 0.169377L14.18 1.65532H13.2708L12.0198 0.169377C11.9246 0.0565077 11.7837 -0.00614384 11.6356 0.000551782L8.9442 0.118203C8.87944 0.121072 8.81565 0.137333 8.75709 0.165551L4.89558 2.04654C4.71326 2.13549 4.60663 2.33062 4.63043 2.53293L4.81179 4.08295L3.26519 4.357C3.09525 4.38713 2.95482 4.50717 2.89817 4.67121L0.908857 10.4323C0.848878 10.6054 0.893148 10.7977 1.02215 10.9273L1.73857 11.6471L0.905049 12.4845C0.761289 12.629 0.724635 12.8494 0.814128 13.0331L2.15985 15.7959C2.20365 15.8859 2.2741 15.9595 2.36169 16.0069L4.11965 16.9581L3.54081 17.3709C3.43084 17.4493 3.35896 17.5708 3.34325 17.7056C3.32755 17.8405 3.36944 17.9754 3.45893 18.0768L6.03329 21.0161C6.07087 21.0587 6.11561 21.0946 6.16562 21.1213L7.34901 21.7598L8.81277 23.8015C8.90229 23.9263 9.04605 24 9.19884 24H11.5395C11.7065 24 11.8617 23.912 11.9479 23.768L13.2998 21.504H14.1519L15.5038 23.768C15.59 23.912 15.7447 24 15.9123 24H18.2524C18.4052 24 18.5489 23.9258 18.6385 23.8015L20.1022 21.7598L21.2856 21.1213C21.3356 21.0946 21.3804 21.0587 21.4179 21.0161L23.9923 18.0768C24.0813 17.9749 24.1232 17.84 24.108 17.7056C24.0927 17.5713 24.0209 17.4493 23.9104 17.3709L23.3316 16.9581L25.0896 16.0073C25.1771 15.96 25.2476 15.8863 25.2914 15.7964L26.6371 13.0335C26.7266 12.8499 26.6904 12.6294 26.5466 12.485ZM10.4613 1.00919L11.4243 0.967108L10.4903 5.66075L6.41599 4.32591L10.4613 1.00919ZM16.99 1.00919L21.0352 4.32591L16.9609 5.66075L16.027 0.967108L16.99 1.00919ZM21.4627 5.19203L19.6034 13.3679L17.2013 6.58806L21.4627 5.19203ZM16.3526 7.04483L19.0874 14.7639L16.7177 16.1987L14.9835 13.7289V7.91334L16.3526 7.04483ZM14.0315 13.6376H13.4193V8.12804H14.0315V13.6376ZM12.4673 18.137L11.4523 16.8343L12.4673 15.3885V18.137ZM13.4193 14.5941H14.0315V18.9281H13.4193V14.5941ZM14.9835 15.3885L15.9984 16.8338L14.9835 18.1366V15.3885ZM14.0315 7.17155H13.4193V2.61184H14.0315V7.17155ZM12.4673 13.7294L10.7331 16.1991L8.36344 14.7644L11.0982 7.04531L12.4673 7.91382V13.7294ZM7.84788 13.3679L5.98855 5.19203L10.2499 6.58806L7.84788 13.3679ZM7.00106 13.9389L2.90912 11.461L5.21499 6.08588L7.00106 13.9389ZM8.21061 15.7878L10.1833 16.9825L8.16444 19.8578L8.21061 15.7878ZM10.8792 17.6502L12.4673 19.689V20.7115L8.61712 20.8722L10.8792 17.6507V17.6502ZM13.4193 19.8846H14.0315V20.5465H13.4193V19.8846ZM14.9835 19.689L16.5715 17.6502L18.8336 20.8722L14.9835 20.7115V19.689ZM17.268 16.9825L19.2406 15.7878L19.2868 19.8578L17.268 16.9825ZM22.2358 6.08588L24.5416 11.461L20.4497 13.9389L22.2358 6.08588ZM25.5451 10.4629L25.2695 10.7398L22.846 5.09113L23.7452 5.2504L25.5451 10.4629ZM21.7298 3.66114L18.8641 1.31146L21.8355 2.75914L21.7298 3.66114ZM15.2377 1.8801L16.0755 6.08924L14.984 6.78179V2.18188L15.2377 1.8801ZM12.4673 6.78222L11.3757 6.08972L12.2135 1.88058L12.4677 2.18236V6.7827L12.4673 6.78222ZM8.58717 1.31146L5.72148 3.66114L5.61578 2.75914L8.58717 1.31146ZM3.70598 5.2504L4.6052 5.09113L2.18175 10.7398L1.90613 10.4629L3.70598 5.2504ZM2.94767 15.2374L1.81854 12.9193L2.44118 12.2942L6.88586 14.9858L4.98602 16.3402L2.94767 15.2374ZM4.52237 17.8434L7.25714 15.8935L7.20381 20.5957L6.69113 20.3193L4.52237 17.8434ZM11.2696 23.043H9.44258L8.57383 21.8311L12.0812 21.6847L11.2696 23.043ZM18.0087 23.043H16.1817L15.3705 21.6847L18.8779 21.8311L18.0087 23.043ZM20.7601 20.3188L20.2474 20.5953L20.1936 15.893L22.9284 17.8429L20.7601 20.3188ZM24.5036 15.2369L22.4652 16.3397L20.5654 14.9853L25.01 12.2937L25.6327 12.9188L24.5036 15.2369Z" fill="white"/>
<path d="M32.6328 11.6764V3.26709H36.3686C37.341 3.26709 38.0902 3.45562 38.6161 3.83267C39.1519 4.20972 39.4198 4.74058 39.4198 5.42523C39.4198 6.1099 39.1866 6.63579 38.7202 7.00289C38.2538 7.37005 37.6486 7.5536 36.9044 7.5536L37.1128 7.21126C37.9959 7.21126 38.6756 7.39981 39.1519 7.77685C39.6381 8.144 39.8811 8.68971 39.8811 9.41408C39.8811 10.1285 39.6083 10.6842 39.0626 11.081C38.5168 11.4779 37.6982 11.6764 36.6067 11.6764H32.6328ZM33.7044 10.8429H36.577C37.3013 10.8429 37.852 10.7239 38.2291 10.4857C38.6061 10.2376 38.7947 9.85563 38.7947 9.33963C38.7947 8.81374 38.6061 8.43176 38.2291 8.19358C37.852 7.95545 37.3013 7.83641 36.577 7.83641H33.5258V7.00289H36.2942C36.9491 7.00289 37.4551 6.87886 37.8123 6.6308C38.1794 6.38273 38.363 6.02057 38.363 5.54432C38.363 5.06802 38.1794 4.71081 37.8123 4.47267C37.4551 4.22461 36.9491 4.10058 36.2942 4.10058H33.7044V10.8429Z" fill="white"/>
<path d="M42.125 11.6764V3.26709H43.1966V11.6764H42.125Z" fill="white"/>
<path d="M53.1865 10.6937C52.9283 10.922 52.6307 11.1204 52.2932 11.2891C51.9558 11.4479 51.5939 11.567 51.207 11.6463C50.8297 11.7257 50.4428 11.7654 50.0459 11.7654C49.1727 11.7654 48.3888 11.5818 47.6943 11.2147C47.0096 10.8376 46.4688 10.3266 46.0719 9.68166C45.675 9.02679 45.4766 8.28755 45.4766 7.46401C45.4766 6.64043 45.67 5.90617 46.057 5.26119C46.4539 4.61624 46.9947 4.10523 47.6794 3.72818C48.364 3.35112 49.1382 3.1626 50.0012 3.1626C50.6857 3.1626 51.3011 3.26678 51.8468 3.47515C52.4027 3.68353 52.8687 3.99608 53.246 4.41283L52.5611 5.11235C52.214 4.76508 51.8272 4.51205 51.4004 4.35329C50.9833 4.18461 50.522 4.10027 50.0161 4.10027C49.3614 4.10027 48.771 4.24911 48.245 4.54678C47.7191 4.83452 47.3023 5.23143 46.9947 5.7375C46.6971 6.24351 46.5482 6.81903 46.5482 7.46401C46.5482 8.10894 46.6971 8.6894 46.9947 9.2054C47.3023 9.71142 47.7191 10.1083 48.245 10.3961C48.7806 10.6838 49.3859 10.8277 50.0608 10.8277C50.547 10.8277 50.9982 10.7533 51.4153 10.6045C51.842 10.4556 52.2289 10.2224 52.5759 9.9049L53.1865 10.6937ZM52.1593 10.6937V7.46401H53.1865V10.6937H52.1593Z" fill="white"/>
<path d="M59.9297 11.6764V3.26709H63.6655C64.638 3.26709 65.3873 3.45562 65.9129 3.83267C66.4486 4.20972 66.7169 4.74058 66.7169 5.42523C66.7169 6.1099 66.4836 6.63579 66.017 7.00289C65.551 7.37005 64.9457 7.5536 64.2012 7.5536L64.4095 7.21126C65.2927 7.21126 65.9724 7.39981 66.4486 7.77685C66.9348 8.144 67.1782 8.68971 67.1782 9.41408C67.1782 10.1285 66.905 10.6842 66.3593 11.081C65.8135 11.4779 64.9951 11.6764 63.9036 11.6764H59.9297ZM61.0015 10.8429H63.8738C64.5982 10.8429 65.1487 10.7239 65.526 10.4857C65.9033 10.2376 66.0914 9.85563 66.0914 9.33963C66.0914 8.81374 65.9033 8.43176 65.526 8.19358C65.1487 7.95545 64.5982 7.83641 63.8738 7.83641H60.823V7.00289H63.5911C64.2458 7.00289 64.7522 6.87886 65.1094 6.6308C65.4766 6.38273 65.6599 6.02057 65.6599 5.54432C65.6599 5.06802 65.4766 4.71081 65.1094 4.47267C64.7522 4.22461 64.2458 4.10058 63.5911 4.10058H61.0015V10.8429Z" fill="white"/>
<path d="M69.4219 11.6764V3.26709H72.6811C73.4155 3.26709 74.0404 3.3812 74.5564 3.60942C75.0825 3.83763 75.4891 4.17004 75.7771 4.60663C76.0646 5.03331 76.2086 5.55421 76.2086 6.16942C76.2086 6.76477 76.0646 7.28072 75.7771 7.71733C75.4891 8.15389 75.0825 8.48633 74.5564 8.71453C74.0404 8.94277 73.4155 9.05686 72.6811 9.05686H70.0171L70.4932 8.58056V11.6764H69.4219ZM75.1819 11.6764L72.9787 8.62525H74.1547L76.3425 11.6764H75.1819ZM70.4932 8.68477L70.0766 8.1787H72.6364C73.45 8.1787 74.0702 8.00508 74.4969 7.65781C74.9236 7.30059 75.1372 6.80446 75.1372 6.16942C75.1372 5.52445 74.9236 5.02832 74.4969 4.68104C74.0702 4.33375 73.45 4.16011 72.6364 4.16011H70.0766L70.4932 3.65407V8.68477Z" fill="white"/>
<path d="M77.1797 11.6764L81.0643 3.26709H82.1213L86.0059 11.6764H84.9341L81.407 3.84755H81.779L78.2366 11.6764H77.1797ZM78.817 9.50336L79.1294 8.64013H83.9222L84.2347 9.50336H78.817Z" fill="white"/>
<path d="M87.6094 11.6764V3.26709H88.6812V11.6764H87.6094Z" fill="white"/>
<path d="M91.8047 11.6764V3.26709H92.6831L98.3984 10.3518H97.9818V3.26709H99.0532V11.6764H98.1604L92.445 4.57686H92.8765V11.6764H91.8047Z" fill="white"/>
<path d="M32.5625 21.5651V13.3223H34.7645V16.4761H38.0257V13.3223H40.2276V21.5651H38.0257V18.2966H34.7645V21.5651H32.5625Z" fill="white"/>
<path d="M46.2828 21.7227C45.4187 21.7227 44.6476 21.5411 43.9693 21.178C43.291 20.8052 42.7568 20.2939 42.3666 19.6441C41.9764 18.9942 41.7812 18.2584 41.7812 17.4365C41.7812 16.6146 41.9764 15.8835 42.3666 15.2432C42.7568 14.6029 43.291 14.0964 43.9693 13.7237C44.6476 13.3509 45.4187 13.1646 46.2828 13.1646C47.1468 13.1646 47.918 13.3509 48.5962 13.7237C49.2745 14.0964 49.8087 14.6029 50.199 15.2432C50.5892 15.8835 50.7841 16.6146 50.7841 17.4365C50.7841 18.2584 50.5892 18.9942 50.199 19.6441C49.8087 20.2939 49.2745 20.8052 48.5962 21.178C47.918 21.5411 47.1468 21.7227 46.2828 21.7227ZM46.2828 19.8735C46.7287 19.8735 47.119 19.7731 47.4535 19.5724C47.7972 19.3622 48.0667 19.0707 48.2618 18.6979C48.4569 18.3253 48.5544 17.9095 48.5544 17.4508C48.5544 16.973 48.4569 16.5524 48.2618 16.1893C48.0667 15.8261 47.7972 15.5394 47.4535 15.3292C47.119 15.1189 46.7287 15.0138 46.2828 15.0138C45.8461 15.0138 45.4559 15.1189 45.1121 15.3292C44.7683 15.5394 44.4943 15.8261 44.2898 16.1893C44.0948 16.5524 43.9972 16.9682 43.9972 17.4365C43.9972 17.9047 44.0948 18.3253 44.2898 18.6979C44.4943 19.0707 44.7683 19.3622 45.1121 19.5724C45.4559 19.7731 45.8461 19.8735 46.2828 19.8735Z" fill="white"/>
<path d="M52.3516 21.5651V13.3223H54.5538V19.8018H58.4696V21.5651H52.3516Z" fill="white"/>
<path d="M59.6562 21.5651V13.3223H63.4334C64.353 13.3223 65.1518 13.4895 65.8305 13.824C66.5178 14.1585 67.0473 14.6364 67.4188 15.2575C67.7999 15.8692 67.9905 16.6003 67.9905 17.4508C67.9905 18.2918 67.7999 19.0229 67.4188 19.6441C67.0473 20.2558 66.5178 20.7288 65.8305 21.0633C65.1518 21.3978 64.353 21.5651 63.4334 21.5651H59.6562ZM61.8585 19.7875H63.3633C63.8558 19.7875 64.2786 19.6967 64.6319 19.5151C64.9938 19.3335 65.2727 19.0707 65.4681 18.7267C65.663 18.3731 65.7604 17.9478 65.7604 17.4508C65.7604 16.9443 65.663 16.5191 65.4681 16.175C65.2727 15.8214 64.9938 15.5538 64.6319 15.3722C64.2786 15.1907 63.8558 15.0998 63.3633 15.0998H61.8585V19.7875Z" fill="white"/>
<path d="M69.5469 21.5651V13.3223H71.7486V21.5651H69.5469Z" fill="white"/>
<path d="M73.8828 21.5651V13.3223H75.6948L80.2102 18.8987H79.3879V13.3223H81.5479V21.5651H79.7364L75.2066 15.9886H76.0433V21.5651H73.8828Z" fill="white"/>
<path d="M90.9694 20.6762C90.6723 20.896 90.3377 21.0872 89.9662 21.2496C89.6038 21.4025 89.2227 21.5172 88.8233 21.5937C88.4331 21.6797 88.0476 21.7227 87.6665 21.7227C86.7747 21.7227 85.9851 21.5411 85.2972 21.178C84.6099 20.8052 84.0708 20.2939 83.6806 19.6441C83.2999 18.9942 83.1094 18.2631 83.1094 17.4508C83.1094 16.6193 83.3043 15.8835 83.6945 15.2432C84.0847 14.6029 84.6238 14.0964 85.3111 13.7237C85.999 13.3509 86.7795 13.1646 87.6526 13.1646C88.4331 13.1646 89.1113 13.2888 89.6873 13.5373C90.2729 13.7762 90.7606 14.1441 91.1508 14.6411L89.7012 15.9743C89.4319 15.6493 89.1252 15.4104 88.7815 15.2575C88.447 15.0951 88.0803 15.0138 87.6804 15.0138C87.2254 15.0138 86.8212 15.1189 86.4679 15.3292C86.1151 15.5299 85.8363 15.8118 85.6318 16.175C85.4273 16.5381 85.3251 16.9634 85.3251 17.4508C85.3251 17.9191 85.4273 18.3396 85.6318 18.7123C85.8363 19.0755 86.1151 19.3622 86.4679 19.5724C86.8212 19.7731 87.2345 19.8735 87.7083 19.8735C88.0985 19.8735 88.4518 19.8113 88.7676 19.6871C89.0926 19.5629 89.4132 19.3765 89.7291 19.128L90.9694 20.6762ZM88.963 20.7049V17.3361H90.9694V20.6762L88.963 20.7049Z" fill="white"/>
<path d="M99.1662 19.0564C99.1662 19.5724 99.0222 20.0311 98.7342 20.4325C98.4553 20.8339 98.0468 21.1493 97.5078 21.3786C96.9783 21.608 96.3231 21.7227 95.5427 21.7227C94.9014 21.7227 94.2697 21.6414 93.6471 21.479C93.0342 21.3165 92.5369 21.1015 92.1562 20.8339L92.9228 19.1567C93.2847 19.4052 93.7076 19.6011 94.191 19.7444C94.6738 19.8878 95.1663 19.9595 95.6679 19.9595C96.1604 19.9595 96.5041 19.8878 96.6994 19.7444C96.8943 19.6011 96.9922 19.4338 96.9922 19.2427C96.9922 19.0516 96.9039 18.8987 96.7273 18.784C96.5603 18.6693 96.337 18.5785 96.0582 18.5116C95.7889 18.4351 95.487 18.3635 95.1524 18.2966C94.8275 18.2297 94.4972 18.1437 94.1631 18.0386C93.8377 17.9334 93.5358 17.7948 93.2569 17.6228C92.9876 17.4413 92.7644 17.2071 92.5883 16.9204C92.4207 16.6241 92.3372 16.2562 92.3372 15.8166C92.3372 15.3005 92.4812 14.8466 92.7692 14.4547C93.0668 14.0534 93.4849 13.738 94.0234 13.5086C94.5625 13.2792 95.2038 13.1646 95.9468 13.1646C96.4484 13.1646 96.9596 13.2219 97.4799 13.3366C98.0002 13.4513 98.4553 13.6328 98.8455 13.8813L98.1346 15.5585C97.7727 15.3292 97.3964 15.1667 97.0062 15.0712C96.625 14.9756 96.2439 14.9278 95.8633 14.9278C95.3987 14.9278 95.0593 14.9995 94.8457 15.1428C94.6321 15.2862 94.525 15.4678 94.525 15.6876C94.525 15.8787 94.6091 16.0316 94.7761 16.1463C94.9436 16.261 95.1615 16.3565 95.4313 16.433C95.7097 16.4999 96.0164 16.5668 96.351 16.6337C96.6855 16.7006 97.0153 16.7866 97.3402 16.8917C97.6657 16.9873 97.9676 17.1211 98.2465 17.2931C98.5249 17.4652 98.7481 17.6945 98.9151 17.9812C99.0827 18.2584 99.1662 18.6167 99.1662 19.0564Z" fill="white"/>
</svg>
