<svg width="337" height="62" viewBox="0 0 337 62" fill="none" xmlns="http://www.w3.org/2000/svg">
<g clip-path="url(#clip0_33870_187502)">
<path d="M180.7 62.3L147.3 0.199997H163.4L187.1 44.3L210.8 0.199997H226.9L193.5 62.3H180.7ZM248.7 62.3V42.3H273.7L284.3 62.1H300.4L288.4 39.7C291.5 38 294.1 35.5 295.9 32.6C300.1 26 300.3 17.5 296.3 10.7C294.4 7.6 291.8 4.90001 288.7 3.10001C285.5 1.20001 281.8 0.199997 278.1 0.199997H234.5V62.4L248.7 62.3ZM248.7 28.1V14.3H278.1C281.9 14.3 285 17.4 285 21.2C285 25 281.9 28.1 278.1 28.1H248.7ZM64.2 62.1V48H14.2V0H0V62.1H64.2ZM78.9 14.3H133.2V0.100006H78.9V14.3ZM72.5 10.8H86.1V3.7H72.6L72.5 10.8ZM126 10.8H139.6V3.7H126V10.8ZM78.9 62.1H133.2V47.9H78.9V62.1ZM72.5 58.6H86.1V51.5H72.6L72.5 58.6ZM126 58.6H139.6V51.5H126V58.6ZM78.9 38.2H106.1V24H78.9V38.2ZM72.5 34.7H86.1V27.6H72.6L72.5 34.7ZM98.9 34.7H112.5V27.6H99L98.9 34.7Z" fill="#3DFFA0"/>
<path d="M330.8 42.6C332.6 42.5 334.4 43.3 335.6 44.7C336.8 46.4 337.4 48.4 337.3 50.5V62.1H314.7V51C314.6 49 315.2 47 316.4 45.4C317.5 44 319.1 43.2 320.9 43.3C322.8 43.2 324.6 44.3 325.5 46C326.3 43.9 328.4 42.5 330.8 42.6ZM319.2 56.8H323.7V51C323.7 50.3 323.5 49.7 323 49.2C322.6 48.7 322 48.5 321.4 48.5C320.8 48.5 320.2 48.7 319.8 49.2C319.4 49.7 319.2 50.3 319.2 51V56.8ZM332 48.6C331.1 47.7 329.6 47.7 328.6 48.6C328.2 49.1 327.9 49.8 328 50.5V56.9H332.7V50.5C332.7 49.8 332.5 49.1 332 48.6Z" fill="#CEFDDC"/>
<path d="M319.5 34.1H323.4V24H328.1V34.1H332.4V22.4H337.2V39.4H314.6V22.4H319.5V34.1Z" fill="#CEFDDC"/>
<path d="M319.5 0.900024V8.10004H337.2V13.5H319.5V20.7H314.6V1.00003H319.5V0.900024Z" fill="#CEFDDC"/>
</g>
<defs>
<clipPath id="clip0_33870_187502">
<rect width="337" height="62" fill="white"/>
</clipPath>
</defs>
</svg>
