<svg width="111" height="20" viewBox="0 0 111 20" fill="none" xmlns="http://www.w3.org/2000/svg">
<path d="M59.1096 20L48.2021 0.0417485H53.4536L61.1939 14.2132L68.9375 0.0417485H74.189L63.2815 20H59.1096ZM81.29 20V13.5774H89.4445L92.902 19.9294H98.1535L94.2394 12.7264C95.2392 12.1716 96.085 11.383 96.702 10.4303C97.3739 9.38331 97.7414 8.17497 97.7644 6.93671C97.7874 5.69845 97.4651 4.47769 96.8325 3.40719C96.2282 2.39745 95.3743 1.55457 94.3503 0.956967C93.303 0.343912 92.1046 0.0261857 90.8862 0.0385341H76.681V19.9968L81.29 20ZM81.29 9.03018V4.59217H90.8829C91.4807 4.59217 92.054 4.82595 92.4767 5.2421C92.8994 5.65825 93.1369 6.22266 93.1369 6.81118C93.1369 7.3997 92.8994 7.96411 92.4767 8.38026C92.054 8.7964 91.4807 9.03018 90.8829 9.03018H81.29ZM21.0964 19.9486V15.4143H4.78734V0H0.171875V19.9583L21.0964 19.9486ZM25.9011 4.59538H43.6225V0.0417485H25.9141L25.9011 4.59538ZM23.8298 3.45536H28.2594V1.17212H23.8429L23.8298 3.45536ZM41.2642 3.45536H45.7068V1.17212H41.2707L41.2642 3.45536ZM25.9011 19.9486H43.6225V15.395H25.9141L25.9011 19.9486ZM23.8298 18.8054H28.2594V16.5254H23.8429L23.8298 18.8054ZM41.2642 18.8054H45.7068V16.5254H41.2707L41.2642 18.8054ZM25.9011 12.2704H34.7863V7.70713H25.9141L25.9011 12.2704ZM23.8298 11.1304H28.2594V8.85035H23.8429L23.8298 11.1304ZM32.428 11.1304H36.8575V8.85035H32.441L32.428 11.1304Z" fill="white"/>
<path d="M108.061 13.6673C108.355 13.653 108.649 13.7069 108.918 13.8246C109.187 13.9423 109.424 14.1205 109.611 14.3449C110.009 14.8826 110.205 15.5399 110.165 16.2042V19.9325H102.8V16.3776C102.77 15.7373 102.966 15.1064 103.354 14.5921C103.524 14.3736 103.744 14.1979 103.997 14.0795C104.249 13.9612 104.527 13.9035 104.806 13.9113C105.115 13.9008 105.421 13.977 105.688 14.1311C105.955 14.2851 106.171 14.5108 106.313 14.7816C106.456 14.4437 106.699 14.1563 107.011 13.9574C107.324 13.7585 107.69 13.6573 108.061 13.6673ZM104.297 18.253H105.771V16.3776C105.775 16.2736 105.757 16.17 105.719 16.0729C105.681 15.9758 105.623 15.8872 105.55 15.8124C105.48 15.7408 105.397 15.6841 105.304 15.6459C105.212 15.6078 105.112 15.589 105.011 15.5908C104.913 15.5884 104.816 15.607 104.726 15.6452C104.636 15.6835 104.555 15.7405 104.49 15.8124C104.421 15.8893 104.369 15.9789 104.336 16.076C104.303 16.173 104.289 16.2756 104.297 16.3776V18.253ZM108.462 15.5973C108.314 15.4562 108.116 15.3774 107.91 15.3774C107.703 15.3774 107.505 15.4562 107.357 15.5973C107.21 15.7667 107.137 15.9855 107.151 16.2074V18.2562H108.678V16.2074C108.691 15.984 108.613 15.7647 108.462 15.5973Z" fill="white"/>
<path d="M104.387 10.9636H105.665V7.70737H107.192V10.9572H108.594V7.19678H110.17V12.656H102.805V7.19678H104.387V10.9636Z" fill="white"/>
<path d="M104.387 0.282715V2.59164H110.17V4.3129H104.387V6.61862H102.805V0.282715H104.387Z" fill="white"/>
</svg>
