<svg width="172" height="35" viewBox="0 0 172 35" fill="none" xmlns="http://www.w3.org/2000/svg">
<path d="M103.365 35L84.3268 0.0730599H93.4931L107.003 24.8732L120.519 0.0730599H129.686L110.647 35H103.365ZM142.08 35V23.7604H156.313L162.348 34.8764H171.515L164.683 22.2712C166.428 21.3003 167.904 19.9203 168.981 18.253C170.154 16.4208 170.795 14.3062 170.835 12.1392C170.876 9.97228 170.313 7.83595 169.209 5.96259C168.154 4.19553 166.664 2.7205 164.876 1.67469C163.048 0.601847 160.957 0.045825 158.83 0.0674346H134.035V34.9944L142.08 35ZM142.08 15.8028V8.03629H158.824C159.868 8.03629 160.868 8.44542 161.606 9.17367C162.344 9.90193 162.758 10.8897 162.758 11.9196C162.758 12.9495 162.344 13.9372 161.606 14.6654C160.868 15.3937 159.868 15.8028 158.824 15.8028H142.08ZM37.015 34.9101V26.975H8.54828V0H0.492188V34.9269L37.015 34.9101ZM45.4013 8.04191H76.3333V0.0730599H45.4241L45.4013 8.04191ZM41.7861 6.04688H49.5176V2.05122H41.8088L41.7861 6.04688ZM72.217 6.04688H79.9714V2.05122H72.2284L72.217 6.04688ZM45.4013 34.9101H76.3333V26.9412H45.4241L45.4013 34.9101ZM41.7861 32.9094H49.5176V28.9194H41.8088L41.7861 32.9094ZM72.217 32.9094H79.9714V28.9194H72.2284L72.217 32.9094ZM45.4013 21.4732H60.91V13.4875H45.4241L45.4013 21.4732ZM41.7861 19.4782H49.5176V15.4881H41.8088L41.7861 19.4782ZM56.7937 19.4782H64.5253V15.4881H56.8165L56.7937 19.4782Z" fill="black"/>
</svg>
